<svg width="95" height="95" viewBox="0 0 95 95" fill="none" xmlns="http://www.w3.org/2000/svg">
<rect width="95" height="95" rx="10" fill="white"/>
<path d="M50.2311 13.0068H38.202L33.5781 28.4609H45.6071L50.2311 13.0068Z" fill="black"/>
<path d="M56.0673 30.7131H13V42.7422H52.4679L56.0673 30.7131Z" fill="black"/>
<path d="M72.5107 30.7131L68.9121 42.7422H80.9075V30.7131H72.5107Z" fill="black"/>
<path d="M64.7342 49.1992L75.5637 13.0008H63.5353L52.7051 49.1992H64.7342Z" fill="black"/>
<path d="M43.1465 81.0352H55.1756L59.7995 65.581H47.7704L43.1465 81.0352Z" fill="black"/>
<path d="M24.507 51.4318H13V63.4609H20.9082L24.507 51.4318Z" fill="black"/>
<path d="M37.4453 63.4609H81.0001V51.4318H41.0439L37.4453 63.4609Z" fill="black"/>
<path d="M28.7425 44.8367L17.9121 81.0352H29.9412L40.7712 44.8367H28.7425Z" fill="black"/>
</svg>
